<svg width="27" height="27" viewBox="0 0 27 27" fill="none" xmlns="http://www.w3.org/2000/svg">
<path fill-rule="evenodd" clip-rule="evenodd" d="M8.00393 1.05919C9.38594 0.995581 9.82658 0.981445 13.347 0.981445C16.8674 0.981445 17.308 0.996759 18.6889 1.05919C20.0697 1.12163 21.0123 1.34191 21.837 1.66115C22.7006 1.98746 23.4841 2.49753 24.1321 3.15721C24.7919 3.80393 25.3009 4.58612 25.626 5.45077C25.9465 6.27537 26.1656 7.21777 26.2293 8.59603C26.2929 9.98018 26.307 10.4208 26.307 13.9394C26.307 17.4593 26.2917 17.8999 26.2293 19.2817C26.1668 20.6599 25.9465 21.6023 25.626 22.4269C25.3008 23.2917 24.791 24.0752 24.1321 24.7228C23.4841 25.3825 22.7006 25.8914 21.837 26.2165C21.0123 26.537 20.0697 26.7561 18.6912 26.8197C17.308 26.8833 16.8674 26.8974 13.347 26.8974C9.82658 26.8974 9.38594 26.8821 8.00393 26.8197C6.62545 26.7572 5.6829 26.537 4.85817 26.2165C3.99329 25.8914 3.20968 25.3816 2.56189 24.7228C1.90256 24.0757 1.39232 23.2926 1.06678 22.4281C0.747487 21.6035 0.528345 20.6611 0.464723 19.2828C0.401101 17.8987 0.386963 17.4581 0.386963 13.9394C0.386963 10.4196 0.402279 9.979 0.464723 8.59839C0.527167 7.21777 0.747487 6.27537 1.06678 5.45077C1.39281 4.58622 1.90343 3.80312 2.56307 3.15603C3.20994 2.49694 3.99276 1.9868 4.85699 1.66115C5.68172 1.34191 6.62427 1.12281 8.00275 1.05919H8.00393ZM18.584 3.39163C17.2173 3.3292 16.8073 3.31624 13.347 3.31624C9.88666 3.31624 9.47666 3.3292 8.10996 3.39163C6.84577 3.44935 6.16007 3.66021 5.70293 3.83809C5.09852 4.07369 4.66613 4.35288 4.21253 4.80641C3.78254 5.22466 3.45163 5.73383 3.24406 6.29658C3.06615 6.75364 2.85526 7.43924 2.79753 8.70323C2.73508 10.0697 2.72212 10.4797 2.72212 13.9394C2.72212 17.3992 2.73508 17.8092 2.79753 19.1756C2.85526 20.4396 3.06615 21.1252 3.24406 21.5823C3.45142 22.1442 3.78249 22.6543 4.21253 23.0725C4.63078 23.5024 5.14094 23.8334 5.70293 24.0408C6.16007 24.2187 6.84577 24.4295 8.10996 24.4872C9.47666 24.5497 9.88549 24.5626 13.347 24.5626C16.8085 24.5626 17.2173 24.5497 18.584 24.4872C19.8482 24.4295 20.5339 24.2187 20.9911 24.0408C21.5955 23.8052 22.0279 23.526 22.4815 23.0725C22.9115 22.6543 23.2426 22.1442 23.4499 21.5823C23.6278 21.1252 23.8387 20.4396 23.8965 19.1756C23.9589 17.8092 23.9719 17.3992 23.9719 13.9394C23.9719 10.4797 23.9589 10.0697 23.8965 8.70323C23.8387 7.43924 23.6278 6.75364 23.4499 6.29658C23.2143 5.69226 22.9351 5.25994 22.4815 4.80641C22.0631 4.37652 21.5539 4.04567 20.9911 3.83809C20.5339 3.66021 19.8482 3.44935 18.584 3.39163ZM11.6916 17.934C12.6161 18.3188 13.6455 18.3707 14.604 18.0809C15.5625 17.7912 16.3907 17.1777 16.9471 16.3452C17.5034 15.5127 17.7535 14.513 17.6545 13.5167C17.5555 12.5203 17.1137 11.5893 16.4044 10.8825C15.9522 10.4307 15.4055 10.0848 14.8036 9.86962C14.2017 9.65444 13.5596 9.57537 12.9234 9.63811C12.2873 9.70084 11.673 9.90382 11.1247 10.2324C10.5764 10.561 10.1079 11.0071 9.75271 11.5385C9.39755 12.0699 9.16466 12.6734 9.07079 13.3056C8.97692 13.9378 9.02441 14.583 9.20984 15.1946C9.39528 15.8063 9.71404 16.3692 10.1432 16.8429C10.5723 17.3166 11.1012 17.6892 11.6916 17.934ZM8.63661 9.22979C9.25519 8.61131 9.98954 8.12071 10.7978 7.78599C11.606 7.45127 12.4722 7.279 13.347 7.279C14.2218 7.279 15.088 7.45127 15.8962 7.78599C16.7044 8.12071 17.4388 8.61131 18.0574 9.22979C18.6759 9.84827 19.1666 10.5825 19.5014 11.3906C19.8362 12.1987 20.0085 13.0648 20.0085 13.9394C20.0085 14.8141 19.8362 15.6802 19.5014 16.4883C19.1666 17.2964 18.6759 18.0306 18.0574 18.6491C16.8081 19.8981 15.1137 20.5999 13.347 20.5999C11.5803 20.5999 9.88588 19.8981 8.63661 18.6491C7.38734 17.4 6.68551 15.7059 6.68551 13.9394C6.68551 12.173 7.38734 10.4789 8.63661 9.22979ZM21.4859 8.2709C21.6392 8.12633 21.7619 7.95247 21.8468 7.75962C21.9317 7.56677 21.977 7.35886 21.98 7.14819C21.9831 6.93752 21.9439 6.72837 21.8647 6.53313C21.7854 6.33789 21.6678 6.16053 21.5188 6.01155C21.3698 5.86256 21.1924 5.74499 20.9972 5.66578C20.8019 5.58657 20.5927 5.54734 20.382 5.55041C20.1713 5.55348 19.9634 5.59879 19.7705 5.68366C19.5776 5.76853 19.4037 5.89122 19.2591 6.04448C18.9779 6.34255 18.8239 6.73847 18.8299 7.14819C18.8359 7.55791 19.0013 7.94917 19.2911 8.23891C19.5809 8.52866 19.9722 8.69407 20.382 8.70005C20.7918 8.70602 21.1878 8.55208 21.4859 8.2709Z" fill="black"/>
</svg>
